<svg width="1751" height="370" viewBox="0 0 1751 370" fill="none" xmlns="http://www.w3.org/2000/svg">
<g opacity="0.5">
<g opacity="0.1" filter="url(#filter0_f_21127_9633)">
<ellipse cx="674.279" cy="164.618" rx="674.279" ry="164.618" transform="matrix(-0.994599 -0.103791 -0.311038 0.950398 1535.85 242.379)" fill="#F23393"/>
</g>
<g opacity="0.4" filter="url(#filter1_f_21127_9633)">
<ellipse cx="307.718" cy="93.3808" rx="307.718" ry="93.3808" transform="matrix(-0.994599 -0.103791 -0.311038 0.950398 1162.24 293.151)" fill="#F23393"/>
</g>
<g opacity="0.3" filter="url(#filter2_f_21127_9633)">
<ellipse cx="137.609" cy="390.251" rx="137.609" ry="390.251" transform="matrix(-0.0479825 -0.998848 -0.987933 -0.15488 1663.5 623.736)" fill="#D056EA"/>
</g>
</g>
<g opacity="0.3">
<mask id="path-4-outside-1_21127_9633" maskUnits="userSpaceOnUse" x="102.018" y="0.291016" width="1425" height="508" fill="black">
<rect fill="white" x="102.018" y="0.291016" width="1425" height="508"/>
<path d="M461.228 401.874H403.351V122.62H461.228V140.769C465.206 136.357 468.687 132.948 471.769 130.341C483.305 120.815 497.725 116.002 514.63 116.002C528.652 116.002 543.271 120.214 558.088 128.336L563.458 131.344L535.912 184.387L530.144 180.476C521.89 174.961 514.233 172.154 507.172 172.154C496.83 172.154 487.681 175.663 479.228 182.883C471.67 189.4 466.499 199.528 463.913 213.064C462.123 223.191 461.228 237.33 461.228 255.077V401.874ZM448.698 389.239V255.178C448.698 236.728 449.693 221.788 451.582 210.858C454.764 194.314 461.328 181.78 471.073 173.357C481.714 164.232 493.846 159.62 507.172 159.62C514.829 159.62 522.884 161.926 531.138 166.438L546.552 136.658C535.613 131.344 524.873 128.636 514.63 128.636C500.509 128.636 489.073 132.346 479.725 140.067C474.952 144.178 468.189 151.398 459.737 161.726L448.599 175.362V135.254H415.782V389.239H448.698Z"/>
<path d="M454.869 128.937V157.714C463.521 147.086 470.482 139.565 475.653 135.153C485.995 126.63 498.923 122.319 514.536 122.319C527.564 122.319 541.088 126.229 554.911 133.95L533.431 175.262C524.083 169.045 515.332 165.836 506.978 165.836C495.144 165.836 484.504 169.947 474.957 178.069C466.305 185.59 460.438 196.82 457.554 211.86C455.665 222.489 454.77 236.928 454.77 255.077V395.456H409.423V128.937H454.869Z"/>
<path d="M769.521 111.69L848.48 290.874L927.141 111.69H977.759L848.182 395.556L718.605 111.69H769.521Z"/>
<path d="M848.171 410.697L708.749 105.374H773.587L848.469 275.332L923.053 105.374H987.593L848.171 410.697ZM728.439 118.008L848.171 380.416L967.903 118.008H931.108L848.37 306.516L765.333 118.008H728.24H728.439Z"/>
<path d="M515.605 395.557L644.486 111.391L774.76 394.956H724.142L645.083 216.073L566.621 395.457H515.705L515.605 395.557Z"/>
<path d="M505.767 401.874L644.394 96.2496L784.512 401.272L719.972 401.473L644.99 231.715L570.506 401.774L505.668 401.974L505.767 401.874ZM644.493 126.531L525.358 389.24H562.451L644.99 200.431L728.127 388.739H764.921L644.493 126.531Z"/>
<path d="M1074.29 109.985H1025.66V395.556H1074.29V109.985Z"/>
<path d="M1080.56 401.873H1019.4V103.669H1080.56V401.873ZM1031.93 389.239H1067.93V116.303H1031.93V389.239Z"/>
<path d="M1221.27 155.306V395.554H1172.64V155.306H1143.01V109.984H1172.64V7.60752H1221.27V109.984H1271.19V155.306H1221.27Z"/>
<path d="M1227.54 401.872H1166.38V161.624H1136.75V103.667H1166.38V1.29102H1227.54V103.667H1277.46V161.624H1227.54V401.872ZM1178.91 389.238H1214.91V148.989H1264.83V116.301H1214.91V13.9251H1178.91V116.301H1149.28V148.989H1178.91V389.238Z"/>
<path d="M1399.59 277.237L1317.54 114.297H1353.05L1415.99 243.145L1473.67 114.297H1508.28L1376.52 395.656H1341.91L1399.59 277.137V277.237Z"/>
<path d="M1379.3 400.169H1334.75L1394.61 277.237L1310.28 109.886H1355.73L1415.8 232.717L1470.79 109.886H1515.24L1379.3 400.169ZM1348.97 391.245H1373.73L1501.32 118.81H1476.56L1416.19 253.673L1350.36 118.81H1324.8L1404.56 277.237L1348.97 391.245Z"/>
<path d="M1380.39 401.974H1331.96L1392.72 277.337L1307.5 108.181H1356.92L1415.8 228.606L1469.7 108.181H1518.03L1380.39 401.974ZM1372.54 389.54L1498.44 120.615H1477.55L1416.09 257.785L1349.07 120.615H1327.49L1406.35 277.237L1351.65 389.54H1372.54Z"/>
<path d="M1383.18 406.385H1324.8L1387.65 277.337L1300.24 103.669H1359.61L1415.5 218.178L1466.81 103.669H1524.99L1383.18 406.385ZM1339.02 397.461H1377.61L1511.06 112.493H1472.48L1415.9 238.934L1354.14 112.493H1314.66L1397.6 277.137L1339.02 397.361V397.461ZM1344.69 393.852L1401.58 277.137L1320.43 116.002H1351.95L1416.09 247.256L1474.87 116.002H1505.6L1375.52 393.852H1344.69ZM1369.65 384.928L1491.37 124.926H1480.34L1416.19 268.112L1346.28 124.926H1334.65L1411.22 277.036L1358.71 384.928H1369.65Z"/>
<path d="M235.876 506.456C170.243 506.456 111.172 463.841 109.68 394.655H168.751C171.834 433.159 199.778 454.717 235.876 454.717C276.549 454.717 307.576 427.544 307.576 377.809V335.696C292.361 360.864 259.743 378.311 226.131 378.311C157.414 378.311 103.018 320.856 103.018 247.458C103.018 174.06 157.414 116.605 226.131 116.605C259.743 116.605 292.262 134.052 307.576 159.22V122.821H367.641V376.807C367.641 454.817 307.079 506.557 235.876 506.557V506.456ZM236.374 324.867C278.638 324.867 310.659 291.476 310.659 247.357C310.659 203.238 278.638 169.848 236.374 169.848C194.109 169.848 162.585 203.238 162.585 247.357C162.585 291.476 194.607 324.867 236.374 324.867Z"/>
</mask>
<path d="M461.228 401.874H403.351V122.62H461.228V140.769C465.206 136.357 468.687 132.948 471.769 130.341C483.305 120.815 497.725 116.002 514.63 116.002C528.652 116.002 543.271 120.214 558.088 128.336L563.458 131.344L535.912 184.387L530.144 180.476C521.89 174.961 514.233 172.154 507.172 172.154C496.83 172.154 487.681 175.663 479.228 182.883C471.67 189.4 466.499 199.528 463.913 213.064C462.123 223.191 461.228 237.33 461.228 255.077V401.874ZM448.698 389.239V255.178C448.698 236.728 449.693 221.788 451.582 210.858C454.764 194.314 461.328 181.78 471.073 173.357C481.714 164.232 493.846 159.62 507.172 159.62C514.829 159.62 522.884 161.926 531.138 166.438L546.552 136.658C535.613 131.344 524.873 128.636 514.63 128.636C500.509 128.636 489.073 132.346 479.725 140.067C474.952 144.178 468.189 151.398 459.737 161.726L448.599 175.362V135.254H415.782V389.239H448.698Z" stroke="#EDEDED" stroke-width="2" mask="url(#path-4-outside-1_21127_9633)"/>
<path d="M454.869 128.937V157.714C463.521 147.086 470.482 139.565 475.653 135.153C485.995 126.63 498.923 122.319 514.536 122.319C527.564 122.319 541.088 126.229 554.911 133.95L533.431 175.262C524.083 169.045 515.332 165.836 506.978 165.836C495.144 165.836 484.504 169.947 474.957 178.069C466.305 185.59 460.438 196.82 457.554 211.86C455.665 222.489 454.77 236.928 454.77 255.077V395.456H409.423V128.937H454.869Z" stroke="#EDEDED" stroke-width="2" mask="url(#path-4-outside-1_21127_9633)"/>
<path d="M769.521 111.69L848.48 290.874L927.141 111.69H977.759L848.182 395.556L718.605 111.69H769.521Z" stroke="#EDEDED" stroke-width="2" mask="url(#path-4-outside-1_21127_9633)"/>
<path d="M848.171 410.697L708.749 105.374H773.587L848.469 275.332L923.053 105.374H987.593L848.171 410.697ZM728.439 118.008L848.171 380.416L967.903 118.008H931.108L848.37 306.516L765.333 118.008H728.24H728.439Z" stroke="#EDEDED" stroke-width="2" mask="url(#path-4-outside-1_21127_9633)"/>
<path d="M515.605 395.557L644.486 111.391L774.76 394.956H724.142L645.083 216.073L566.621 395.457H515.705L515.605 395.557Z" stroke="#EDEDED" stroke-width="2" mask="url(#path-4-outside-1_21127_9633)"/>
<path d="M505.767 401.874L644.394 96.2496L784.512 401.272L719.972 401.473L644.99 231.715L570.506 401.774L505.668 401.974L505.767 401.874ZM644.493 126.531L525.358 389.24H562.451L644.99 200.431L728.127 388.739H764.921L644.493 126.531Z" stroke="#EDEDED" stroke-width="2" mask="url(#path-4-outside-1_21127_9633)"/>
<path d="M1074.29 109.985H1025.66V395.556H1074.29V109.985Z" stroke="#EDEDED" stroke-width="2" mask="url(#path-4-outside-1_21127_9633)"/>
<path d="M1080.56 401.873H1019.4V103.669H1080.56V401.873ZM1031.93 389.239H1067.93V116.303H1031.93V389.239Z" stroke="#EDEDED" stroke-width="2" mask="url(#path-4-outside-1_21127_9633)"/>
<path d="M1221.27 155.306V395.554H1172.64V155.306H1143.01V109.984H1172.64V7.60752H1221.27V109.984H1271.19V155.306H1221.27Z" stroke="#EDEDED" stroke-width="2" mask="url(#path-4-outside-1_21127_9633)"/>
<path d="M1227.54 401.872H1166.38V161.624H1136.75V103.667H1166.38V1.29102H1227.54V103.667H1277.46V161.624H1227.54V401.872ZM1178.91 389.238H1214.91V148.989H1264.83V116.301H1214.91V13.9251H1178.91V116.301H1149.28V148.989H1178.91V389.238Z" stroke="#EDEDED" stroke-width="2" mask="url(#path-4-outside-1_21127_9633)"/>
<path d="M1399.59 277.237L1317.54 114.297H1353.05L1415.99 243.145L1473.67 114.297H1508.28L1376.52 395.656H1341.91L1399.59 277.137V277.237Z" stroke="#EDEDED" stroke-width="2" mask="url(#path-4-outside-1_21127_9633)"/>
<path d="M1379.3 400.169H1334.75L1394.61 277.237L1310.28 109.886H1355.73L1415.8 232.717L1470.79 109.886H1515.24L1379.3 400.169ZM1348.97 391.245H1373.73L1501.32 118.81H1476.56L1416.19 253.673L1350.36 118.81H1324.8L1404.56 277.237L1348.97 391.245Z" stroke="#EDEDED" stroke-width="2" mask="url(#path-4-outside-1_21127_9633)"/>
<path d="M1380.39 401.974H1331.96L1392.72 277.337L1307.5 108.181H1356.92L1415.8 228.606L1469.7 108.181H1518.03L1380.39 401.974ZM1372.54 389.54L1498.44 120.615H1477.55L1416.09 257.785L1349.07 120.615H1327.49L1406.35 277.237L1351.65 389.54H1372.54Z" stroke="#EDEDED" stroke-width="2" mask="url(#path-4-outside-1_21127_9633)"/>
<path d="M1383.18 406.385H1324.8L1387.65 277.337L1300.24 103.669H1359.61L1415.5 218.178L1466.81 103.669H1524.99L1383.18 406.385ZM1339.02 397.461H1377.61L1511.06 112.493H1472.48L1415.9 238.934L1354.14 112.493H1314.66L1397.6 277.137L1339.02 397.361V397.461ZM1344.69 393.852L1401.58 277.137L1320.43 116.002H1351.95L1416.09 247.256L1474.87 116.002H1505.6L1375.52 393.852H1344.69ZM1369.65 384.928L1491.37 124.926H1480.34L1416.19 268.112L1346.28 124.926H1334.65L1411.22 277.036L1358.71 384.928H1369.65Z" stroke="#EDEDED" stroke-width="2" mask="url(#path-4-outside-1_21127_9633)"/>
<path d="M235.876 506.456C170.243 506.456 111.172 463.841 109.68 394.655H168.751C171.834 433.159 199.778 454.717 235.876 454.717C276.549 454.717 307.576 427.544 307.576 377.809V335.696C292.361 360.864 259.743 378.311 226.131 378.311C157.414 378.311 103.018 320.856 103.018 247.458C103.018 174.06 157.414 116.605 226.131 116.605C259.743 116.605 292.262 134.052 307.576 159.22V122.821H367.641V376.807C367.641 454.817 307.079 506.557 235.876 506.557V506.456ZM236.374 324.867C278.638 324.867 310.659 291.476 310.659 247.357C310.659 203.238 278.638 169.848 236.374 169.848C194.109 169.848 162.585 203.238 162.585 247.357C162.585 291.476 194.607 324.867 236.374 324.867Z" stroke="#EDEDED" stroke-width="2" mask="url(#path-4-outside-1_21127_9633)"/>
</g>
<defs>
<filter id="filter0_f_21127_9633" x="0.78476" y="16.8128" width="1626.44" height="624.069" filterUnits="userSpaceOnUse" color-interpolation-filters="sRGB">
<feFlood flood-opacity="0" result="BackgroundImageFix"/>
<feBlend mode="normal" in="SourceGraphic" in2="BackgroundImageFix" result="shape"/>
<feGaussianBlur stdDeviation="70.3" result="effect1_foregroundBlur_21127_9633"/>
</filter>
<filter id="filter1_f_21127_9633" x="379.082" y="115.015" width="896.106" height="469.893" filterUnits="userSpaceOnUse" color-interpolation-filters="sRGB">
<feFlood flood-opacity="0" result="BackgroundImageFix"/>
<feBlend mode="normal" in="SourceGraphic" in2="BackgroundImageFix" result="shape"/>
<feGaussianBlur stdDeviation="70.3" result="effect1_foregroundBlur_21127_9633"/>
</filter>
<filter id="filter2_f_21127_9633" x="792.454" y="182.353" width="957.801" height="486.981" filterUnits="userSpaceOnUse" color-interpolation-filters="sRGB">
<feFlood flood-opacity="0" result="BackgroundImageFix"/>
<feBlend mode="normal" in="SourceGraphic" in2="BackgroundImageFix" result="shape"/>
<feGaussianBlur stdDeviation="46.65" result="effect1_foregroundBlur_21127_9633"/>
</filter>
</defs>
</svg>
